<svg
  xmlns="http://www.w3.org/2000/svg"
  viewBox="0 7.8 89.65 39.5"
  width="89.65"
  height="39.5"
>
  <g fill="#ff6b00">
    <!-- l -->
    <path d="M10.50 47.10Q7.25 47.05 5.22 46.40Q3.20 45.75 2.03 44.58Q0.85 43.40 0.43 41.73Q0 40.05 0 37.95L0 9L7.45 7.80L7.45 36.45Q7.45 37.45 7.60 38.25Q7.75 39.05 8.18 39.60Q8.60 40.15 9.40 40.50Q10.20 40.85 11.55 40.95L10.50 47.10Z" />

    <!-- e -->
    <path
      transform="translate(-2, 0)"
      d="M14.55 33.65Q14.55 30.15 15.63 27.53Q16.70 24.90 18.45 23.15Q20.20 21.40 22.48 20.50Q24.75 19.60 27.15 19.60Q32.75 19.60 36 23.02Q39.25 26.45 39.25 33.10Q39.25 33.75 39.20 34.52Q39.15 35.30 39.10 35.90L22.20 35.90Q22.45 38.20 24.35 39.55Q26.25 40.90 29.45 40.90Q31.50 40.90 33.48 40.52Q35.45 40.15 36.70 39.60L37.70 45.65Q37.10 45.95 36.10 46.25Q35.10 46.55 33.88 46.77Q32.65 47 31.25 47.15Q29.85 47.30 28.45 47.30Q24.90 47.30 22.28 46.25Q19.65 45.20 17.93 43.38Q16.20 41.55 15.38 39.05Q14.55 36.55 14.55 33.65M32.05 30.80Q32 29.85 31.73 28.95Q31.45 28.05 30.88 27.35Q30.30 26.65 29.43 26.20Q28.55 25.75 27.25 25.75Q26 25.75 25.10 26.18Q24.20 26.60 23.60 27.30Q23 28 22.68 28.93Q22.35 29.85 22.20 30.80L32.05 30.80Z"
    />

    <!-- n -->
    <path
      transform="translate(-5, 0)"
      d="M45 21.20Q46.90 20.65 49.90 20.18Q52.90 19.70 56.20 19.70Q59.55 19.70 61.78 20.57Q64 21.45 65.30 23.05Q66.60 24.65 67.15 26.85Q67.70 29.05 67.70 31.75L67.70 46.60L60.25 46.60L60.25 32.65Q60.25 29.05 59.30 27.55Q58.35 26.05 55.75 26.05Q54.95 26.05 54.05 26.13Q53.15 26.20 52.45 26.30L52.45 46.60L45 46.60L45 21.20Z"
    />

    <!-- d -->
    <path
      transform="translate(-8, 0)"
      d="M80.80 33.25Q80.80 36.70 82.35 38.80Q83.90 40.90 86.95 40.90Q87.95 40.90 88.80 40.83Q89.65 40.75 90.20 40.65L90.20 27.10Q89.50 26.65 88.38 26.35Q87.25 26.05 86.10 26.05Q80.80 26.05 80.80 33.25M97.65 45.75Q96.65 46.05 95.35 46.33Q94.05 46.60 92.63 46.80Q91.20 47 89.73 47.13Q88.25 47.25 86.90 47.25Q83.65 47.25 81.10 46.30Q78.55 45.35 76.80 43.58Q75.05 41.80 74.13 39.27Q73.20 36.75 73.20 33.60Q73.20 30.40 74 27.82Q74.80 25.25 76.30 23.45Q77.80 21.65 79.98 20.70Q82.15 19.75 84.95 19.75Q86.50 19.75 87.73 20.05Q88.95 20.35 90.20 20.90L90.20 9L97.65 7.80L97.65 45.75Z"
    />
  </g>
</svg>